<svg width="38" height="88" viewBox="0 0 38 88" fill="none" xmlns="http://www.w3.org/2000/svg">
<path d="M21.5 3C21.5 1.61929 20.3807 0.5 19 0.5C17.6193 0.5 16.5 1.61929 16.5 3L21.5 3ZM17.2322 86.7678C18.2085 87.7441 19.7915 87.7441 20.7678 86.7678L36.6777 70.8579C37.654 69.8816 37.654 68.2986 36.6777 67.3223C35.7014 66.346 34.1184 66.346 33.1421 67.3223L19 81.4645L4.85786 67.3223C3.88155 66.346 2.29864 66.346 1.32233 67.3223C0.346017 68.2986 0.346017 69.8816 1.32233 70.8579L17.2322 86.7678ZM16.5 3L16.5 85L21.5 85L21.5 3L16.5 3Z" fill="url(#paint0_linear_6_77)"/>
<defs>
<linearGradient id="paint0_linear_6_77" x1="18.9999" y1="13" x2="13.4999" y2="101.5" gradientUnits="userSpaceOnUse">
<stop stop-color="#523EA3"/>
<stop offset="1" stop-color="#523EA3" stop-opacity="0"/>
</linearGradient>
</defs>
</svg>
