<svg width="116" height="116" viewBox="0 0 116 116" fill="none" xmlns="http://www.w3.org/2000/svg">
<g clip-path="url(#clip0_9_16)">
<path d="M53.9533 98.2447C54.9285 98.7529 55.4164 99.007 56.0928 99.1386C56.62 99.2412 57.38 99.2412 57.9072 99.1386C58.5836 99.007 59.0715 98.7529 60.0467 98.2447C69.065 93.546 95 78.1906 95 57.0004V39.0341C95 35.2364 95 33.3376 94.3787 31.7053C93.8301 30.2634 92.9385 28.9768 91.7809 27.9567C90.4709 26.8021 88.6929 26.1353 85.1371 24.8019L59.6686 15.2512C58.681 14.8809 58.1875 14.6957 57.6792 14.6223C57.2289 14.5572 56.7711 14.5572 56.3208 14.6223C55.8125 14.6957 55.319 14.8809 54.3314 15.2512L28.8629 24.8019C25.307 26.1353 23.5291 26.8021 22.2189 27.9567C21.0614 28.9768 20.1698 30.2634 19.6211 31.7053C19 33.3376 19 35.2364 19 39.0341V57.0004C19 78.1906 44.9348 93.546 53.9533 98.2447Z" stroke="url(#paint0_linear_9_16)" stroke-width="10" stroke-linecap="round" stroke-linejoin="round"/>
</g>
<defs>
<linearGradient id="paint0_linear_9_16" x1="57" y1="14.5735" x2="57" y2="99.2156" gradientUnits="userSpaceOnUse">
<stop stop-color="#523EA3"/>
<stop offset="1" stop-color="#5A32F9" stop-opacity="0.43"/>
</linearGradient>
<clipPath id="clip0_9_16">
<rect width="116" height="116" fill="white"/>
</clipPath>
</defs>
</svg>
