<svg width="116" height="116" viewBox="0 0 116 116" fill="none" xmlns="http://www.w3.org/2000/svg">
<g clip-path="url(#clip0_9_44)">
<path d="M23.142 84.3127C22.7801 84.5678 22.3549 84.7185 21.9131 84.7484C21.4713 84.7783 21.0298 84.6862 20.6367 84.4822C20.2437 84.2782 19.9143 83.9701 19.6844 83.5916C19.4546 83.2131 19.3331 82.7787 19.3334 82.3359V33.6642C19.3331 33.2214 19.4546 32.787 19.6844 32.4085C19.9143 32.03 20.2437 31.7219 20.6367 31.5179C21.0298 31.3139 21.4713 31.2218 21.9131 31.2517C22.3549 31.2816 22.7801 31.4323 23.142 31.6874L57.6182 56.028C57.9334 56.2513 58.1905 56.5469 58.3679 56.89C58.5453 57.2331 58.6379 57.6138 58.6379 58C58.6379 58.3863 58.5453 58.767 58.3679 59.1101C58.1905 59.4532 57.9334 59.7488 57.6182 59.972L23.142 84.3127ZM62.8334 33.6642C62.8331 33.2214 62.9546 32.787 63.1844 32.4085C63.4143 32.03 63.7437 31.7219 64.1367 31.5179C64.5298 31.3139 64.9713 31.2218 65.4131 31.2517C65.8549 31.2816 66.28 31.4323 66.642 31.6874L101.118 56.028C101.433 56.2513 101.69 56.5469 101.868 56.89C102.045 57.2331 102.138 57.6138 102.138 58C102.138 58.3863 102.045 58.767 101.868 59.1101C101.69 59.4532 101.433 59.7488 101.118 59.972L66.642 84.3127C66.28 84.5678 65.8549 84.7185 65.4131 84.7484C64.9713 84.7783 64.5298 84.6862 64.1367 84.4822C63.7437 84.2782 63.4143 83.9701 63.1844 83.5916C62.9546 83.2131 62.8331 82.7787 62.8334 82.3359V33.6642Z" fill="url(#paint0_linear_9_44)"/>
</g>
<defs>
<linearGradient id="paint0_linear_9_44" x1="60.7356" y1="31.2462" x2="60.7356" y2="84.7539" gradientUnits="userSpaceOnUse">
<stop stop-color="#523EA3"/>
<stop offset="1" stop-color="#634AC6" stop-opacity="0.49"/>
</linearGradient>
<clipPath id="clip0_9_44">
<rect width="116" height="116" fill="white"/>
</clipPath>
</defs>
</svg>
