<svg width="116" height="116" viewBox="0 0 116 116" fill="none" xmlns="http://www.w3.org/2000/svg">
<g clip-path="url(#clip0_9_21)">
<path d="M58 9.66663C47.745 9.66663 37.9099 13.7404 30.6585 20.9918C23.4071 28.2432 19.3333 38.0783 19.3333 48.3333V57.5166C17.8753 58.787 16.6939 60.3436 15.8624 62.0896C15.031 63.8356 14.5672 65.7339 14.5 67.6666C14.6101 70.4692 15.5642 73.1732 17.2374 75.4242C18.9106 77.6753 21.2248 79.3683 23.8767 80.2816C30.16 95.3133 42.775 106.333 58 106.333H72.5V96.6666H58C47.0767 96.6666 37.1683 88.45 32.19 75.4483L31.175 72.79L28.3233 72.5C27.162 72.3358 26.1 71.755 25.3352 70.8657C24.5704 69.9765 24.1551 68.8394 24.1667 67.6666C24.1718 66.8231 24.3975 65.9957 24.8215 65.2665C25.2454 64.5373 25.8528 63.9317 26.5833 63.51L29 62.1083V53.1666C29 51.8847 29.5092 50.6554 30.4157 49.7489C31.3221 48.8425 32.5515 48.3333 33.8333 48.3333H82.1667C83.4485 48.3333 84.6779 48.8425 85.5844 49.7489C86.4908 50.6554 87 51.8847 87 53.1666V77.3333H67.2317C66.7929 76.1029 66.0298 75.0138 65.0231 74.1814C64.0164 73.3489 62.8035 72.8038 61.5125 72.6039C60.2216 72.404 58.9006 72.5565 57.6893 73.0455C56.4779 73.5344 55.4211 74.3416 54.6307 75.3816C53.8403 76.4217 53.3455 77.656 53.1988 78.954C53.052 80.2521 53.2587 81.5657 53.797 82.7559C54.3353 83.9462 55.1852 84.9689 56.2568 85.716C57.3284 86.463 58.582 86.9066 59.885 87H96.6667C99.2304 87 101.689 85.9815 103.502 84.1686C105.315 82.3558 106.333 79.897 106.333 77.3333V67.6666C106.333 65.1029 105.315 62.6441 103.502 60.8313C101.689 59.0184 99.2304 58 96.6667 58V48.3333C96.6667 38.0783 92.5929 28.2432 85.3415 20.9918C78.0901 13.7404 68.255 9.66663 58 9.66663Z" fill="url(#paint0_linear_9_21)"/>
</g>
<defs>
<linearGradient id="paint0_linear_9_21" x1="60.4167" y1="9.66663" x2="60.4167" y2="106.333" gradientUnits="userSpaceOnUse">
<stop stop-color="#523EA3"/>
<stop offset="1" stop-color="#5944AB" stop-opacity="0.5"/>
</linearGradient>
<clipPath id="clip0_9_21">
<rect width="116" height="116" fill="white"/>
</clipPath>
</defs>
</svg>
