<svg width="229" height="36" viewBox="0 0 229 36" fill="none" xmlns="http://www.w3.org/2000/svg">
<path opacity="0.67" d="M18.6 0.599999V5H11.6V35H7.2V5H0.2V0.599999H18.6ZM33.3813 30.72C36.0213 30.72 38.3413 29.4 39.7413 27.36L44.0213 28.92C41.9413 32.68 37.9413 35.2 33.3813 35.2C26.6213 35.2 21.1813 29.72 21.1813 23C21.1813 16.28 26.6213 10.8 33.3813 10.8C39.8613 10.8 45.1813 15.88 45.5413 22.28L44.1013 24.6H25.8213C26.5413 28.08 29.6613 30.72 33.3813 30.72ZM33.3813 15.28C30.1013 15.28 27.3013 17.32 26.1813 20.2H40.5813C39.4613 17.32 36.6613 15.28 33.3813 15.28ZM48.5297 0.599999H53.0097V35H48.5297V0.599999ZM68.225 30.72C70.865 30.72 73.185 29.4 74.585 27.36L78.865 28.92C76.785 32.68 72.785 35.2 68.225 35.2C61.465 35.2 56.025 29.72 56.025 23C56.025 16.28 61.465 10.8 68.225 10.8C74.705 10.8 80.025 15.88 80.385 22.28L78.945 24.6H60.665C61.385 28.08 64.505 30.72 68.225 30.72ZM68.225 15.28C64.945 15.28 62.145 17.32 61.025 20.2H75.425C74.305 17.32 71.505 15.28 68.225 15.28ZM109.573 27C110.613 25.92 111.453 24.72 112.093 23.44L116.253 24.96C113.533 31 107.453 35.2 100.373 35.2C90.7734 35.2 82.9734 27.4 82.9734 17.8C82.9734 8.2 90.7734 0.399997 100.373 0.399997C107.813 0.399997 114.173 5.08 116.653 11.64L112.533 13.16C111.853 11.48 110.893 9.92 109.573 8.6C107.093 6.12 103.853 4.8 100.373 4.8C96.8934 4.8 93.6134 6.12 91.1734 8.6C88.7334 11.08 87.3734 14.32 87.3734 17.8C87.3734 21.28 88.6934 24.56 91.1734 27C93.6534 29.44 96.8934 30.8 100.373 30.8C103.853 30.8 107.173 29.52 109.573 27ZM131.347 10.92C138.027 10.92 143.427 16.32 143.427 23C143.427 29.68 138.027 35.08 131.347 35.08C124.667 35.08 119.267 29.68 119.267 23C119.267 16.32 124.667 10.92 131.347 10.92ZM131.347 30.64C135.587 30.64 138.987 27.24 138.987 23C138.987 18.76 135.587 15.36 131.347 15.36C127.107 15.36 123.707 18.76 123.707 23C123.707 27.24 127.107 30.64 131.347 30.64ZM172.42 11V35H168.02V15.4H161.62V35H157.22V15.4H150.82V35H146.42V11H172.42ZM189.039 10.8C195.759 10.8 201.239 16.28 201.239 23C201.239 29.72 195.759 35.2 189.039 35.2C185.959 35.2 182.359 33.68 181.039 31.4L179.759 35H175.239L176.839 29.08V0.599999H181.239V14.4C183.359 12.08 186.079 10.8 189.039 10.8ZM189.039 30.72C193.319 30.72 196.759 27.28 196.759 23C196.759 18.72 193.319 15.28 189.039 15.28C184.759 15.28 181.319 18.72 181.319 23C181.319 27.28 184.759 30.72 189.039 30.72ZM216.308 10.92C222.988 10.92 228.388 16.32 228.388 23C228.388 29.68 222.988 35.08 216.308 35.08C209.628 35.08 204.228 29.68 204.228 23C204.228 16.32 209.628 10.92 216.308 10.92ZM216.308 30.64C220.548 30.64 223.948 27.24 223.948 23C223.948 18.76 220.548 15.36 216.308 15.36C212.068 15.36 208.668 18.76 208.668 23C208.668 27.24 212.068 30.64 216.308 30.64Z" fill="black"/>
</svg>
