<svg width="154" height="223" viewBox="0 0 154 223" fill="none" xmlns="http://www.w3.org/2000/svg">
<path id="Vector" d="M4.23466 121.198L4.23379 121.2C0.600722 127.829 0.432522 132.971 2.73149 136.028C5.03023 139.085 10.0097 140.341 17.3566 138.682C35.6774 134.546 53.8822 146.045 58.0182 164.366L67.8841 208.068C68.8815 212.486 70.2686 215.85 71.8992 218.169C73.5284 220.486 75.3737 221.726 77.2964 221.993C79.2192 222.261 81.3327 221.57 83.5313 219.787C85.7316 218.003 87.982 215.149 90.1442 211.179L4.23466 121.198ZM4.23466 121.198L57.403 23.3399L56.9637 23.1012L57.4031 23.3399L63.6854 11.7755C65.8477 7.80496 68.0981 4.9512 70.2985 3.16664C72.4971 1.38361 74.6106 0.693305 76.5334 0.960535C78.4561 1.22776 80.3014 2.46823 81.9306 4.78527C83.5612 7.10431 84.9483 10.4678 85.9457 14.8859L95.8116 58.5882C99.9476 76.909 118.152 88.408 136.473 84.272C143.82 82.6134 148.8 83.8694 151.098 86.926C153.397 89.9829 153.229 95.1252 149.596 101.754L149.595 101.756L96.4268 199.614L90.1444 211.179L4.23466 121.198Z" fill="url(#paint0_linear_9_95)" fill-opacity="0.5" stroke="#523EA3"/>
<defs>
<linearGradient id="paint0_linear_9_95" x1="52.9618" y1="5.37434" x2="100.868" y2="217.58" gradientUnits="userSpaceOnUse">
<stop stop-color="white"/>
<stop offset="1" stop-color="#EFEFEF" stop-opacity="0"/>
</linearGradient>
</defs>
</svg>
